<svg width="156" height="29" viewBox="0 0 156 29" fill="none" xmlns="http://www.w3.org/2000/svg">
<path d="M55.7063 0.809875C61.6514 0.809875 66.4088 2.29455 70.043 5.59955C72.5282 7.85237 73.9161 11.0605 73.8773 14.4236C73.8683 16.083 73.5239 17.7235 72.865 19.2465C72.2061 20.7695 71.2463 22.1437 70.043 23.2865C66.6412 26.4107 61.3416 28.0761 55.7128 28.0761C50.0775 28.0761 44.8682 26.4107 41.4148 23.2865C40.1697 22.1736 39.1779 20.8066 38.5064 19.2776C37.8349 17.7487 37.4993 16.0934 37.5224 14.4236C37.5224 11.0799 38.9296 7.87173 41.4148 5.59955C44.6423 2.66894 50.3486 0.809875 55.7063 0.809875ZM55.7257 24.5C58.7015 24.5 61.4578 23.4607 63.3943 21.5436C65.3308 19.6071 66.1894 17.2832 66.1894 14.4236C66.1894 11.6867 65.234 9.12402 63.3943 7.30369C61.4965 5.43171 58.6627 4.36663 55.7257 4.36663C52.7886 4.36663 49.9613 5.42526 48.0441 7.30369C46.2044 9.12402 45.2426 11.6867 45.2426 14.4236C45.2033 17.0731 46.2099 19.6313 48.0441 21.5436C49.9613 23.4414 52.7757 24.5 55.7257 24.5ZM24.4766 11.7964C25.5095 12.0675 26.51 12.4032 27.4847 12.8486C28.3891 13.2604 29.2165 13.8236 29.9312 14.514C31.2028 15.8438 31.9258 17.6254 31.9064 19.4586C31.9203 20.4306 31.7062 21.3923 31.2813 22.2667C30.8565 23.1411 30.2327 23.9037 29.46 24.4936C28.0931 25.5297 26.5391 26.2924 24.8833 26.7399C22.3909 27.5222 19.7876 27.8928 17.176 27.8373C14.9038 27.8373 13.6515 27.5726 11.928 27.2111L11.4309 27.1079C9.53173 26.6879 7.67711 26.0869 5.89248 25.3134C5.81268 25.2593 5.71768 25.2321 5.62136 25.2359C5.4798 25.2393 5.34518 25.2979 5.24627 25.3992C5.14736 25.5005 5.09201 25.6365 5.09205 25.7781V27.0885H1.29646V17.5479H4.67892C4.69974 18.5151 5.00756 19.4542 5.56327 20.2461C6.93174 21.9244 8.4035 22.5699 9.80425 23.0863C12.1733 23.861 14.6585 24.2741 17.1372 24.3515C20.7069 24.3515 22.7919 23.4866 23.2437 23.2994L23.3018 23.2735L23.3405 23.2606C23.7408 23.1122 25.3545 22.5248 25.3545 20.7302C25.3545 18.9616 23.844 18.5742 22.8564 18.3225L22.7144 18.2902C21.617 17.9933 19.0867 17.7222 16.3239 17.4317L15.3427 17.3284C12.7519 17.0646 10.1739 16.6877 7.61598 16.1988C4.40135 15.4887 3.13616 14.3139 2.34864 13.5845L2.297 13.5328C1.14898 12.3087 0.51171 10.6925 0.515397 9.01428C0.515397 5.81257 2.71012 3.87604 5.40189 2.68831C8.28085 1.39729 11.702 0.822791 14.6972 0.822791C19.9904 0.842156 24.2959 2.56566 25.8451 3.36609C26.4713 3.70176 26.7811 3.28863 26.7811 2.97878V2.01698H30.1829V10.3311H27.1361C26.8626 9.09734 26.1968 7.98536 25.2383 7.16167C24.6542 6.69193 24.0094 6.30326 23.3212 6.00621C20.7673 4.92784 18.0179 4.38939 15.2459 4.42472C12.3863 4.42472 9.64933 4.9734 8.2744 5.81256C7.42233 6.34188 6.98338 7.00675 6.98338 7.78782C6.98338 8.90454 7.92583 9.34995 8.4035 9.4855C9.6687 9.87281 12.4831 10.1504 14.6714 10.3699L15.9882 10.5054C18.099 10.7184 22.5208 11.3058 24.4766 11.7964ZM141.746 5.36071V2.26873H155.437V5.30261H152.365C151.254 5.30261 150.803 5.51563 149.963 6.45807L140.752 16.9798C140.655 17.1092 140.611 17.2709 140.629 17.4317V22.2214C140.645 22.4441 140.671 22.6659 140.707 22.8862C140.762 23.0266 140.849 23.1523 140.961 23.2531C141.073 23.354 141.207 23.4273 141.352 23.4672C141.63 23.5082 141.911 23.5297 142.191 23.5317H145.329V26.5656H128.713V23.5317H131.683C131.963 23.5298 132.244 23.5082 132.522 23.4672C132.669 23.4251 132.806 23.3513 132.922 23.251C133.038 23.1506 133.13 23.0261 133.193 22.8862C133.232 22.6732 133.251 22.4572 133.251 22.2407V17.4511C133.251 17.2897 133.251 17.2897 133.038 17.0379C130.006 13.5834 126.968 10.1343 123.924 6.69045C123.433 6.1805 122.594 5.36071 121.303 5.36071H118.346V2.32682H135.052V5.36071H133.038C132.586 5.36071 132.276 5.81257 132.664 6.30315L138.338 13.0874C138.396 13.1649 138.435 13.1649 138.512 13.1068C138.589 13.0487 144.283 6.36125 144.322 6.30315C144.369 6.2414 144.403 6.17095 144.422 6.09589C144.442 6.02083 144.447 5.94263 144.436 5.86581C144.425 5.78899 144.399 5.71507 144.359 5.64832C144.32 5.58157 144.268 5.52331 144.205 5.4769C144.09 5.40145 143.956 5.36109 143.818 5.36071H141.746ZM101.182 5.34134H104.313C105.74 5.34134 105.991 5.89002 106.011 7.21977L106.191 17.3284L89.5245 2.32682H77.6148V5.36071H80.2743C82.1915 5.36071 82.327 6.41934 82.327 7.36178V21.6469C82.327 22.4731 82.3335 23.5511 81.1522 23.5511H77.886V26.5656H91.8547V23.5317H88.4465C87.078 23.5317 87.0263 22.9056 87.0005 21.5759V9.4274L106.191 26.5398H111.078L110.82 7.20041C110.846 5.7932 110.942 5.32198 112.388 5.32198H115.442V2.28809H101.182V5.34134Z" fill="#A9A9B9"/>
</svg>
